<svg width="120" height="32" viewBox="0 0 120 32" fill="none" xmlns="http://www.w3.org/2000/svg">
  <!-- L -->
  <path d="M8 4H12V24H22V28H8V4Z" fill="currentColor"/>
  <!-- U -->
  <path d="M26 4H30V20C30 22.2091 31.7909 24 34 24C36.2091 24 38 22.2091 38 20V4H42V20C42 24.4183 38.4183 28 34 28C29.5817 28 26 24.4183 26 20V4Z" fill="currentColor"/>
  <!-- C -->
  <path d="M56 16C56 10.4772 60.4772 6 66 6C69.0609 6 71.7981 7.37827 73.6569 9.51472L70.3431 12.4853C69.3912 11.2877 67.7957 10.5 66 10.5C62.9624 10.5 60.5 12.9624 60.5 16C60.5 19.0376 62.9624 21.5 66 21.5C67.7957 21.5 69.3912 20.7123 70.3431 19.5147L73.6569 22.4853C71.7981 24.6217 69.0609 26 66 26C60.4772 26 56 21.5228 56 16Z" fill="currentColor"/>
  <!-- C -->
  <path d="M78 16C78 10.4772 82.4772 6 88 6C91.0609 6 93.7981 7.37827 95.6569 9.51472L92.3431 12.4853C91.3912 11.2877 89.7957 10.5 88 10.5C84.9624 10.5 82.5 12.9624 82.5 16C82.5 19.0376 84.9624 21.5 88 21.5C89.7957 21.5 91.3912 20.7123 92.3431 19.5147L95.6569 22.4853C93.7981 24.6217 91.0609 26 88 26C82.4772 26 78 21.5228 78 16Z" fill="currentColor"/>
  <!-- I -->
  <path d="M100 4H104V28H100V4Z" fill="currentColor"/>
</svg>

