<svg width="2195" height="2199" viewBox="0 0 2195 2199" fill="none" xmlns="http://www.w3.org/2000/svg">
<rect x="0.751953" y="0.0273438" width="2193.59" height="2198.95" fill="#FF004D"/>
<path d="M594.44 1257.48L780.733 1068.66V1067.82L966.139 1256.64C1019.72 1310.95 1085.25 1335.1 1149.89 1335.1C1285.14 1335.1 1415.25 1228.22 1415.25 1067.82L1600.66 1256.64C1654.24 1310.95 1719.77 1335.1 1784.41 1335.1C1919.66 1335.1 2049.77 1228.22 2049.77 1067.82H1890.68L1705.28 879.895C1651.7 825.587 1585.34 801.43 1520.7 801.43C1385.45 801.43 1256.16 907.469 1256.16 1067.82L1070.76 879.895C1017.18 825.587 950.822 801.43 886.181 801.43C750.926 801.43 621.645 907.469 621.645 1067.82L145.326 1068.66C145.326 1229.9 277.151 1334.2 412.405 1334.2C477.046 1334.2 542.574 1310.05 594.44 1257.48Z" fill="white"/>
</svg>
